<svg data-v-423bf9ae="" xmlns="http://www.w3.org/2000/svg" viewBox="0 0 706 90" class="iconLeft"><!----><!----><!----><g data-v-423bf9ae="" id="500ff893-91a5-4f1a-94cd-14e47e848518" fill="black" transform="matrix(5.602240876404433,0,0,5.602240876404433,149.9462829133472,-2.1988784013159446)"><path d="M12.17 3.92L8.33 3.92L6.69 11.13L5.05 3.92L1.12 3.92L1.12 13.58L3.64 13.58L3.64 9.52C3.64 8.68 3.64 7.43 3.61 6.45C3.77 7.43 4.05 8.68 4.27 9.52L5.35 13.58L7.94 13.58L9.00 9.52C9.23 8.67 9.51 7.43 9.67 6.45C9.65 7.43 9.65 8.68 9.65 9.52L9.65 13.58L12.17 13.58ZM18.06 13.58L20.52 13.58C20.41 12.75 20.38 12.25 20.38 11.69L20.38 9.59C20.38 9.13 20.37 8.69 20.34 8.32C20.23 6.96 19.42 5.91 17.05 5.91C15.16 5.91 13.61 6.90 13.59 8.65L15.97 8.64C16.02 7.99 16.35 7.62 16.94 7.62C17.49 7.62 17.79 7.95 17.84 8.33C17.86 8.57 17.86 8.72 17.86 8.88L17.86 8.99L17.39 8.99C14.85 8.99 13.34 9.97 13.34 11.56C13.34 13.01 14.50 13.78 15.74 13.78C16.42 13.78 17.05 13.61 17.58 13.27L17.89 12.49ZM16.77 12.07C16.27 12.07 15.92 11.82 15.92 11.37C15.92 10.63 16.73 10.33 17.86 10.42L17.86 10.91C17.86 11.69 17.28 12.07 16.77 12.07ZM26.42 5.91C25.94 5.91 25.35 6.12 24.95 6.57L24.42 7.62L24.42 6.10L21.90 6.10L21.90 13.58L24.42 13.58L24.42 10.84C24.42 8.58 25.10 7.88 26.99 8.01L26.99 5.95C26.81 5.92 26.66 5.91 26.42 5.91ZM32.16 13.58L34.62 13.58C34.51 12.75 34.48 12.25 34.48 11.69L34.48 9.59C34.48 9.13 34.47 8.69 34.44 8.32C34.33 6.96 33.52 5.91 31.15 5.91C29.26 5.91 27.71 6.90 27.69 8.65L30.07 8.64C30.11 7.99 30.45 7.62 31.04 7.62C31.58 7.62 31.89 7.95 31.93 8.33C31.96 8.57 31.96 8.72 31.96 8.88L31.96 8.99L31.49 8.99C28.95 8.99 27.44 9.97 27.44 11.56C27.44 13.01 28.60 13.78 29.83 13.78C30.52 13.78 31.15 13.61 31.68 13.27L31.99 12.49ZM30.87 12.07C30.37 12.07 30.02 11.82 30.02 11.37C30.02 10.63 30.83 10.33 31.96 10.42L31.96 10.91C31.96 11.69 31.37 12.07 30.87 12.07ZM39.05 10.81L41.05 13.58L44.14 13.58L40.94 9.53L44.10 6.10L41.15 6.10L38.51 9.24L38.51 3.29L35.99 3.29L35.99 13.58L38.51 13.58L38.51 11.40ZM46.10 3.07C45.32 3.07 44.80 3.54 44.80 4.30C44.80 5.05 45.32 5.53 46.10 5.53C46.89 5.53 47.40 5.05 47.40 4.30C47.40 3.54 46.89 3.07 46.10 3.07ZM47.36 13.58L47.36 6.10L44.84 6.10L44.84 13.58ZM56.32 5.91C55.57 5.91 54.84 6.06 54.42 6.37L53.86 7.20L53.86 3.29L51.34 3.29L51.34 13.58L53.86 13.58L53.86 12.61L54.35 13.41C54.73 13.64 55.45 13.78 56.07 13.78C57.99 13.78 59.61 12.33 59.61 9.67C59.61 7.46 58.35 5.91 56.32 5.91ZM55.38 12.07C54.63 12.07 53.86 11.56 53.86 10.07L53.86 9.74C53.86 8.18 54.53 7.62 55.45 7.62C56.34 7.62 57.04 8.40 57.04 9.80C57.04 11.33 56.36 12.07 55.38 12.07ZM68.03 9.74C68.03 7.81 66.77 5.91 64.27 5.91C61.78 5.91 60.28 7.69 60.28 9.87C60.28 12.50 61.99 13.78 64.13 13.78C66.05 13.78 67.45 12.82 67.89 11.13L65.41 11.13C65.31 11.70 64.88 12.07 64.16 12.07C63.45 12.07 62.90 11.72 62.78 10.47L67.98 10.47C68.01 10.22 68.03 9.97 68.03 9.74ZM64.15 7.62C64.82 7.62 65.25 8.05 65.39 8.93L62.86 8.93C63.03 8.01 63.49 7.62 64.15 7.62ZM72.14 7.73L73.79 7.73L73.79 6.16L72.14 6.16L72.14 4.23L69.62 4.23L69.62 6.16L68.43 6.16L68.43 7.73L69.62 7.73L69.62 10.85C69.62 11.27 69.62 11.62 69.65 12.05C69.73 13.20 70.29 13.78 72.16 13.78C72.69 13.78 73.15 13.73 73.64 13.65L73.64 12.08C72.45 12.14 72.21 11.97 72.16 11.21C72.14 11.02 72.14 10.74 72.14 10.49ZM78.23 5.91C75.78 5.91 74.21 7.43 74.21 9.84C74.21 12.24 75.78 13.78 78.23 13.78C80.68 13.78 82.25 12.24 82.25 9.84C82.25 7.43 80.68 5.91 78.23 5.91ZM78.23 12.07C77.34 12.07 76.79 11.33 76.79 9.84C76.79 8.34 77.34 7.62 78.23 7.62C79.13 7.62 79.67 8.34 79.67 9.84C79.67 11.33 79.13 12.07 78.23 12.07ZM86.86 5.91C84.66 5.91 82.92 7.35 82.92 9.93C82.92 12.39 84.55 13.78 86.69 13.78C88.72 13.78 90.22 12.77 90.50 10.84L88.02 10.84C87.88 11.65 87.40 12.07 86.83 12.07C85.97 12.07 85.50 11.37 85.50 9.77C85.50 8.33 85.96 7.62 86.80 7.62C87.43 7.62 87.92 7.98 88.03 8.96L90.47 8.96C90.40 7.28 89.05 5.91 86.86 5.91ZM99.08 7.94C98.88 6.64 97.97 5.91 96.43 5.91C95.75 5.91 95.21 6.06 94.75 6.34L94.08 7.27L94.08 3.22L91.56 3.22L91.56 13.58L94.08 13.58L94.08 10.05C94.08 8.36 94.63 7.62 95.40 7.62C96.15 7.62 96.54 8.04 96.60 8.75C96.63 9.13 96.63 9.53 96.63 9.77L96.63 13.58L99.15 13.58L99.15 9.35C99.15 8.75 99.13 8.32 99.08 7.94Z"></path></g><!----><g data-v-423bf9ae="" id="4d0d6a8b-5e33-44ab-a588-3ee6343299f7" transform="matrix(1.4379293781848441,0,0,1.4379293781848441,-11.69659952208957,-9.014705762578338)" stroke="none" fill="black"><path d="M102.923 54.276l-6.311 6.407-41.002-41.05-41.026 41.05-6.395-6.407L55.584 6.887l.071.068.249-.071L75.281 26.08V12.474h8v22.35z"></path><path d="M47.281 40.474h17v29h-17z"></path></g><!----></svg>